<?xml version="1.0" standalone="no"?>
<!DOCTYPE svg PUBLIC "-//W3C//DTD SVG 20010904//EN"
 "http://www.w3.org/TR/2001/REC-SVG-20010904/DTD/svg10.dtd">
<svg version="1.0" xmlns="http://www.w3.org/2000/svg"
 width="512.000000pt" height="512.000000pt" viewBox="0 0 512.000000 512.000000"
 preserveAspectRatio="xMidYMid meet">
<metadata>
Created by potrace 1.14, written by Peter Selinger 2001-2017
</metadata>
<g transform="translate(0.000000,512.000000) scale(0.100000,-0.100000)"
fill="#000000" stroke="none">
<path d="M2078 4609 l-3 -271 -120 -42 c-66 -24 -156 -61 -200 -84 l-80 -41
-198 197 -197 197 -360 -360 -360 -360 196 -196 195 -197 -42 -83 c-23 -46
-61 -138 -85 -204 l-42 -120 -271 -3 -271 -2 0 -480 0 -480 271 -2 271 -3 42
-120 c24 -66 61 -156 84 -201 l41 -81 -85 -84 c-46 -46 -84 -87 -84 -91 0 -3
15 -2 33 5 21 7 179 12 450 15 l417 3 0 322 c0 190 4 337 10 359 14 48 61 95
111 108 l39 11 0 302 c0 166 5 331 11 366 46 284 254 515 530 586 380 99 761
-125 876 -514 13 -46 17 -119 20 -398 l5 -343 38 -10 c49 -13 96 -60 110 -108
6 -22 10 -169 10 -359 l0 -322 418 -3 c270 -3 428 -8 450 -15 17 -7 32 -8 32
-5 0 4 -38 45 -84 91 l-85 84 41 81 c23 45 60 135 84 201 l42 120 271 3 271 2
0 480 0 480 -271 2 -271 3 -42 120 c-24 66 -61 156 -84 200 l-41 80 197 198
197 197 -363 362 -362 363 -197 -197 -198 -198 -31 19 c-48 29 -169 81 -274
116 l-95 33 -3 271 -2 271 -480 0 -480 0 -2 -271z"/>
<path d="M2439 3261 c-91 -29 -178 -99 -226 -181 -48 -81 -53 -124 -53 -452
l0 -308 400 0 400 0 0 308 c0 253 -3 318 -16 363 -63 216 -292 338 -505 270z"/>
<path d="M2500 1831 c-122 -40 -193 -148 -175 -267 l6 -44 229 0 229 0 6 44
c15 101 -37 200 -129 248 -43 22 -128 32 -166 19z"/>
</g>
</svg>
